<svg width="391" height="112" viewBox="0 0 391 112" fill="none" xmlns="http://www.w3.org/2000/svg">
<ellipse cx="50.5" cy="57.5" rx="50.5" ry="46.5" fill="url(#paint0_linear_8_169)"/>
<path d="M33.9759 53.4044C37.6113 56.7945 37.8104 62.489 34.4212 66.1234C31.0321 69.7578 25.3376 69.9564 21.7022 66.5663C18.0668 63.1763 17.8677 57.4818 21.2569 53.8474C24.646 50.213 30.3405 50.0143 33.9759 53.4044Z" stroke="white" stroke-width="3"/>
<path d="M53.7225 71.8184C57.3579 75.2084 57.5569 80.9029 54.1678 84.5373C50.7787 88.1717 45.0842 88.3704 41.4488 84.9803C37.8134 81.5902 37.6143 75.8957 41.0035 72.2613C44.3926 68.6269 50.0871 68.4283 53.7225 71.8184Z" stroke="white" stroke-width="3"/>
<rect width="39.0876" height="5.99969" transform="matrix(0.139099 -0.990278 0.990257 0.139247 45.8477 70.6267)" fill="white"/>
<rect width="39.0876" height="5.99969" transform="matrix(0.978163 -0.207838 0.207985 0.978132 34.3512 55.2014)" fill="white"/>
<path d="M57.0769 32.7257L56.9615 26.7744L51.1701 31.9888L57.0769 32.7257Z" fill="white"/>
<path d="M72.4649 47.2908L78.4036 46.8871L73.7138 53.1109L72.4649 47.2908Z" fill="white"/>
<path d="M116.437 53.344C116.437 49.568 118.037 46.56 121.237 44.32C124.501 42.08 128.885 40.96 134.389 40.96C139.893 40.96 144.181 42.112 147.253 44.416C150.389 46.72 152.021 49.632 152.149 53.152H144.757C144.181 48.992 140.661 46.912 134.197 46.912C131.061 46.912 128.629 47.616 126.901 49.024C125.237 50.432 124.405 51.968 124.405 53.632C124.405 55.232 125.045 56.608 126.325 57.76C127.605 58.848 129.653 59.808 132.469 60.64L141.685 63.712C145.589 64.928 148.565 66.496 150.613 68.416C152.725 70.272 153.781 72.864 153.781 76.192C153.781 79.456 152.085 82.432 148.693 85.12C145.301 87.744 140.565 89.056 134.485 89.056C128.405 89.056 123.669 87.712 120.277 85.024C116.885 82.272 115.093 78.752 114.901 74.464H122.197C122.325 77.344 123.477 79.52 125.653 80.992C127.893 82.4 130.677 83.104 134.005 83.104C137.333 83.104 140.085 82.4 142.261 80.992C144.437 79.584 145.525 77.92 145.525 76C145.525 74.016 144.885 72.512 143.605 71.488C142.325 70.464 140.245 69.568 137.365 68.8L128.437 65.824C120.437 63.456 116.437 59.296 116.437 53.344ZM176.664 50.944C179.672 44.288 184.824 40.96 192.12 40.96C197.56 40.96 201.784 42.752 204.792 46.336C207.864 49.92 209.4 54.816 209.4 61.024V88H201.912V61.024C201.912 56.608 200.856 53.28 198.744 51.04C196.696 48.8 193.752 47.68 189.912 47.68C186.072 47.68 182.968 49.248 180.6 52.384C178.232 55.52 176.984 59.872 176.856 65.44V88H169.272V42.112H175.8L176.664 50.944ZM227.692 42.016H235.276V88H227.692V42.016ZM231.436 31.264C229.9 31.264 228.684 30.848 227.788 30.016C226.956 29.12 226.54 27.968 226.54 26.56C226.54 25.088 226.956 23.936 227.788 23.104C228.684 22.208 229.9 21.76 231.436 21.76C232.972 21.76 234.188 22.208 235.084 23.104C236.044 23.936 236.524 25.088 236.524 26.56C236.524 27.968 236.044 29.12 235.084 30.016C234.188 30.848 232.972 31.264 231.436 31.264ZM263.003 49.12C266.011 43.68 270.491 40.96 276.443 40.96C282.459 40.96 287.451 43.168 291.419 47.584C295.451 52 297.467 57.824 297.467 65.056C297.467 72.288 295.451 78.112 291.419 82.528C287.387 86.88 282.427 89.056 276.539 89.056C270.651 89.056 266.299 86.848 263.483 82.432V110.56H255.899V42.112H262.139L263.003 49.12ZM276.155 82.336C279.739 82.336 282.875 80.8 285.563 77.728C288.315 74.656 289.691 70.464 289.691 65.152C289.691 59.776 288.379 55.52 285.755 52.384C283.195 49.248 280.059 47.68 276.347 47.68C272.635 47.68 269.595 48.864 267.227 51.232C264.859 53.536 263.611 56.672 263.483 60.64V69.376C263.483 73.408 264.699 76.576 267.131 78.88C269.563 81.184 272.571 82.336 276.155 82.336ZM336.254 42.016H343.838V88H336.254V42.016ZM339.998 31.264C338.462 31.264 337.246 30.848 336.35 30.016C335.518 29.12 335.102 27.968 335.102 26.56C335.102 25.088 335.518 23.936 336.35 23.104C337.246 22.208 338.462 21.76 339.998 21.76C341.534 21.76 342.75 22.208 343.646 23.104C344.606 23.936 345.086 25.088 345.086 26.56C345.086 27.968 344.606 29.12 343.646 30.016C342.75 30.848 341.534 31.264 339.998 31.264ZM388.462 86.656C382.958 89.216 377.934 89.76 373.39 88.288C370.126 87.264 367.822 85.12 366.478 81.856C365.774 80.256 365.422 78.336 365.422 76.096V47.872H358.03V42.112H365.422V29.344H372.91V42.112H387.31V47.872H372.91V76C372.91 80.672 375.086 83.008 379.438 83.008C381.806 83.008 384.462 82.432 387.406 81.28L388.462 86.656Z" fill="url(#paint1_linear_8_169)"/>
<defs>
<linearGradient id="paint0_linear_8_169" x1="50.5" y1="11" x2="50.5" y2="104" gradientUnits="userSpaceOnUse">
<stop stop-color="#FC355A"/>
<stop offset="0.770833" stop-color="#FFAD0D"/>
</linearGradient>
<linearGradient id="paint1_linear_8_169" x1="250" y1="0" x2="250" y2="112" gradientUnits="userSpaceOnUse">
<stop stop-color="#FC355A"/>
<stop offset="1" stop-color="#F2C14E"/>
</linearGradient>
</defs>
</svg>
